HIERARCHY
ROOT Hips
{
	OFFSET 0.00000 0.00000 0.00000
	CHANNELS 6 Xposition Yposition Zposition Zrotation Yrotation Xrotation 
	JOINT LHipJoint
	{
		OFFSET 0 0 0
		CHANNELS 3 Zrotation Yrotation Xrotation
		JOINT LeftUpLeg
		{
			OFFSET 1.36306 -1.79463 0.83929
			CHANNELS 3 Zrotation Yrotation Xrotation
			JOINT LeftLeg
			{
				OFFSET 2.44811 -6.72613 0.00000
				CHANNELS 3 Zrotation Yrotation Xrotation
				JOINT LeftFoot
				{
					OFFSET 2.56220 -7.03959 0.00000
					CHANNELS 3 Zrotation Yrotation Xrotation
					JOINT LeftToeBase
					{
						OFFSET 0.15764 -0.43311 2.32255
						CHANNELS 3 Zrotation Yrotation Xrotation
						End Site
						{
							OFFSET 0.00000 -0.00000 1.18966
						}
					}
				}
			}
		}
	}
	JOINT RHipJoint
	{
		OFFSET 0 0 0
		CHANNELS 3 Zrotation Yrotation Xrotation
		JOINT RightUpLeg
		{
			OFFSET -1.30552 -1.79463 0.83929
			CHANNELS 3 Zrotation Yrotation Xrotation
			JOINT RightLeg
			{
				OFFSET -2.54253 -6.98555 0.00000
				CHANNELS 3 Zrotation Yrotation Xrotation
				JOINT RightFoot
				{
					OFFSET -2.56826 -7.05623 0.00000
					CHANNELS 3 Zrotation Yrotation Xrotation
					JOINT RightToeBase
					{
						OFFSET -0.16473 -0.45259 2.36315
						CHANNELS 3 Zrotation Yrotation Xrotation
						End Site
						{
							OFFSET -0.00000 -0.00000 1.21082
						}
					}
				}
			}
		}
	}
	JOINT LowerBack
	{
		OFFSET 0 0 0
		CHANNELS 3 Zrotation Yrotation Xrotation
		JOINT Spine
		{
			OFFSET 0.02827 2.03559 -0.19338
			CHANNELS 3 Zrotation Yrotation Xrotation
			JOINT Spine1
			{
				OFFSET 0.05672 2.04885 -0.04275
				CHANNELS 3 Zrotation Yrotation Xrotation
				JOINT Neck
				{
					OFFSET 0 0 0
					CHANNELS 3 Zrotation Yrotation Xrotation
					JOINT Neck1
					{
						OFFSET -0.05417 1.74624 0.17202
						CHANNELS 3 Zrotation Yrotation Xrotation
						JOINT Head
						{
							OFFSET 0.10407 1.76136 -0.12397
							CHANNELS 3 Zrotation Yrotation Xrotation
							End Site
							{
								OFFSET 0.03720 1.77044 -0.06241
							}
						}
					}
				}
				JOINT LeftShoulder
				{
					OFFSET 0 0 0
					CHANNELS 3 Zrotation Yrotation Xrotation
					JOINT LeftArm
					{
						OFFSET 3.36241 1.20089 -0.31121
						CHANNELS 3 Zrotation Yrotation Xrotation
						JOINT LeftForeArm
						{
							OFFSET 4.98300 -0.00000 -0.00000
							CHANNELS 3 Zrotation Yrotation Xrotation
							JOINT LeftHand
							{
								OFFSET 3.48356 -0.00000 -0.00000
								CHANNELS 3 Zrotation Yrotation Xrotation
								JOINT LeftFingerBase
								{
									OFFSET 0 0 0
									CHANNELS 3 Zrotation Yrotation Xrotation
									JOINT LeftHandIndex1
									{
										OFFSET 0.71526 -0.00000 -0.00000
										CHANNELS 3 Zrotation Yrotation Xrotation
										End Site
										{
											OFFSET 0.57666 -0.00000 -0.00000
										}
									}
								}
								JOINT LThumb
								{
									OFFSET 0 0 0
									CHANNELS 3 Zrotation Yrotation Xrotation
									End Site
									{
										OFFSET 0.58547 -0.00000 0.58547
									}
								}
							}
						}
					}
				}
				JOINT RightShoulder
				{
					OFFSET 0 0 0
					CHANNELS 3 Zrotation Yrotation Xrotation
					JOINT RightArm
					{
						OFFSET -3.13660 1.37405 -0.40465
						CHANNELS 3 Zrotation Yrotation Xrotation
						JOINT RightForeArm
						{
							OFFSET -5.24190 -0.00000 -0.00000
							CHANNELS 3 Zrotation Yrotation Xrotation
							JOINT RightHand
							{
								OFFSET -3.44417 -0.00000 -0.00000
								CHANNELS 3 Zrotation Yrotation Xrotation
								JOINT RightFingerBase
								{
									OFFSET 0 0 0
									CHANNELS 3 Zrotation Yrotation Xrotation
									JOINT RightHandIndex1
									{
										OFFSET -0.62253 -0.00000 -0.00000
										CHANNELS 3 Zrotation Yrotation Xrotation
										End Site
										{
											OFFSET -0.50190 -0.00000 -0.00000
										}
									}
								}
								JOINT RThumb
								{
									OFFSET 0 0 0
									CHANNELS 3 Zrotation Yrotation Xrotation
									End Site
									{
										OFFSET -0.50956 -0.00000 0.50956
									}
								}
							}
						}
					}
				}
			}
		}
	}
}
MOTION
Frames: 14
Frame Time: .0083333
11.6562 17.3847 13.933 0 0 0 0 0 0 -21 0 0 0 0 0 0 0 0 0 0 0 0 0 0 21 0 0 0 0 0 0 0 0 0 0 0 0 0 0 0 0 0 0 0 0 0 0 -16 0 0 21 0 0 11 0 0 0 -8 0 0 0 0 0 0 0 0 0 0 0 0 0 0 0 0 0 0 0 0 8 0 0 0 0 0 0 0 0 0 0 0 0 0 0 0 0 0
11.6562 17.3847 13.9330 -66.0737 -88.5734 70.2373 0.0000 0.0000 0.0000 -21.0753 6.5936 3.0086 1.2051 6.9647 19.6109 1.5936 -10.8972 -22.7567 0.1118 2.1557 5.9363 0.0000 0.0000 0.0000 17.9807 11.0757 -35.1845 -2.0971 -9.0656 26.0006 0.2506 -9.8014 -8.1260 -0.0873 -1.9061 5.2461 -3.4063 0.1804 9.0390 1.7286 -0.1170 3.3824 3.7229 -0.1282 -1.5468 -6.7912 -6.3058 -3.2979 4.9160 -8.7020 11.6938 2.1481 -4.3659 4.5549 -0.0000 0.0000 0.0000 -86.7395 -5.2202 19.9118 23.9185 -35.0779 -7.6596 -0.0000 0.0000 -5.3270 20.5068 -3.8130 -1.4248 -7.1250 0.0000 -0.0000 -4.6320 25.9061 2.1494 -0.0000 0.0000 0.0000 86.7897 -0.8936 18.3360 -14.6431 23.6466 -3.0814 0.0000 -0.0000 -9.5487 -15.4743 -23.0100 6.1762 7.1250 -0.0000 -0.0000 14.1151 -53.2073 -2.8952
11.5663 17.3813 13.9290 -55.9821 -88.6484 60.3659 0.0000 0.0000 0.0000 -21.1946 6.6988 3.4544 1.1219 6.7281 18.9124 1.5490 -11.0991 -22.4694 0.1357 2.3746 6.5420 0.0000 0.0000 0.0000 17.8104 11.0686 -35.5422 -1.9781 -8.8204 25.2351 0.2283 -9.6755 -8.6002 -0.0275 -1.0714 2.9453 -3.5881 -0.0042 8.9741 1.5991 -0.3757 3.3534 3.7165 -0.2565 -1.5172 -7.1607 -6.2592 -3.2277 5.3354 -8.6934 12.0386 2.3328 -4.3608 4.6821 0.0000 0.0000 0.0000 -86.6489 -5.2586 19.8385 23.9572 -35.1189 -7.6819 -0.0000 0.0000 -5.4212 20.8175 -4.5531 -1.7288 -7.1250 0.0000 -0.0000 -4.3835 25.1092 2.1150 0.0000 0.0000 0.0000 86.7580 -1.1619 19.1498 -14.8693 23.9637 -3.1727 0.0000 -0.0000 -9.9744 -15.0598 -23.3421 6.0854 7.1250 -0.0000 -0.0000 14.6793 -53.4588 -3.1061
11.4769 17.3799 13.9117 -19.4605 -89.0398 24.2449 0.0000 0.0000 0.0000 -21.9448 6.8513 3.7136 1.0248 6.4398 18.0661 1.4437 -11.7068 -21.8105 0.2471 3.1986 8.8321 0.0000 0.0000 0.0000 16.5903 11.8141 -35.9792 -1.9022 -8.6593 24.7354 0.1985 -9.7774 -9.7647 -0.0567 -1.5361 4.2252 -4.5350 -0.0393 8.7739 1.3799 -0.4936 3.2952 4.0342 -0.3172 -1.4473 -7.3672 -6.3586 -2.9552 5.5329 -8.8558 11.9853 2.4250 -4.4447 4.6486 -0.0000 0.0000 0.0000 -86.4661 -5.3766 20.3164 24.1285 -35.2999 -7.7807 -0.0000 0.0000 -5.1777 20.6244 -4.4141 -1.6592 -7.1250 0.0000 -0.0000 -4.5309 25.2633 2.1703 -0.0000 0.0000 0.0000 86.8471 -1.4848 18.9400 -15.1474 24.3511 -3.2865 0.0000 -0.0000 -9.6299 -14.9600 -23.6273 6.1125 7.1250 -0.0000 -0.0000 14.9136 -53.7198 -3.2536
11.4004 17.3783 13.9462 -14.8625 -89.2401 20.1987 0.0000 0.0000 0.0000 -22.3162 6.7495 3.8964 0.9530 6.2166 17.4143 1.4473 -11.4395 -21.7976 0.2745 3.3697 9.3099 0.0000 0.0000 0.0000 16.7156 11.1399 -36.9965 -1.8128 -8.4648 24.1349 0.1078 -8.5342 -9.7669 -0.0672 -1.6723 4.6008 -4.1234 0.0258 8.6661 1.1342 -0.3698 3.1710 3.5326 -0.2452 -1.5357 -7.1216 -6.5432 -2.7968 5.4094 -9.1143 11.9108 2.3383 -4.5697 4.5997 -0.0000 -0.0000 0.0000 -86.2337 -5.6535 20.8129 24.3402 -35.5219 -7.9033 -0.0000 0.0000 -4.2673 19.9964 -3.4387 -1.2504 -7.1250 0.0000 -0.0000 -5.0285 26.3152 2.2865 -0.0000 -0.0000 0.0000 87.0740 -1.7130 18.6531 -15.3512 24.6331 -3.3710 0.0000 -0.0000 -9.7612 -15.5599 -23.4864 6.3323 7.1250 -0.0000 -0.0000 14.2500 -53.6919 -3.0943
11.3206 17.3653 13.9357 34.3662 -88.9901 -28.9409 0.0000 0.0000 0.0000 -23.0742 6.7342 4.4192 0.8921 6.0203 16.8434 1.4413 -10.9351 -21.6878 0.1601 2.5777 7.1051 0.0000 0.0000 0.0000 15.9136 11.2765 -37.2077 -1.7372 -8.2959 23.6164 0.1069 -8.7747 -10.2229 -0.0311 -1.1386 3.1303 -4.9466 0.0113 8.9736 0.8066 -0.4832 3.2254 3.6710 -0.3041 -1.6323 -6.8481 -6.6783 -3.0756 5.3878 -9.3173 12.2531 2.2606 -4.6541 4.7504 -0.0000 -0.0000 0.0000 -85.9933 -6.0610 20.9676 24.2840 -35.4631 -7.8707 -0.0000 0.0000 -4.1482 20.0382 -3.6412 -1.3269 -7.1250 0.0000 -0.0000 -4.9911 26.0997 2.2946 -0.0000 -0.0000 0.0000 87.2133 -1.7206 19.2519 -15.4323 24.7449 -3.4048 0.0000 -0.0000 -10.3938 -16.2390 -23.3482 6.5847 7.1250 -0.0000 -0.0000 13.5087 -53.6806 -2.9248
11.2251 17.3614 13.9178 8.7408 -89.1189 -3.0693 0.0000 0.0000 0.0000 -22.4671 6.8668 4.6749 0.8483 5.8745 16.4207 1.4121 -10.7072 -21.4491 0.1220 2.2518 6.2021 0.0000 0.0000 0.0000 16.2598 11.9163 -37.2558 -1.6639 -8.1278 23.1028 0.0608 -8.8307 -11.3767 -0.0659 -1.6565 4.5573 -4.7377 -0.1678 8.8955 0.9081 -0.6975 3.3242 3.6781 -0.4180 -1.4670 -7.1512 -6.6663 -3.4949 5.4816 -9.2700 12.4474 2.3221 -4.6297 4.8964 0.0000 0.0000 0.0000 -85.8690 -6.4383 20.7739 24.3363 -35.5178 -7.9011 -0.0000 0.0000 -4.1662 19.7989 -3.2720 -1.1771 -7.1250 0.0000 -0.0000 -5.1838 26.4959 2.3356 0.0000 0.0000 0.0000 87.1404 -1.6697 19.9448 -15.5460 24.9013 -3.4526 0.0000 -0.0000 -10.2017 -15.6877 -23.0837 6.2839 7.1250 -0.0000 -0.0000 13.9371 -53.3185 -2.8958
11.1267 17.3630 13.9011 -10.5422 -89.0631 16.4073 0.0000 0.0000 0.0000 -21.9507 7.2425 4.8594 0.8146 5.7593 16.0875 1.3542 -10.9963 -21.0632 0.1501 2.4963 6.8793 0.0000 0.0000 0.0000 16.4509 12.4069 -37.2870 -1.6076 -7.9957 22.7012 -0.0151 -8.6106 -12.5569 -0.1526 -2.5170 6.9367 -4.6927 -0.2823 8.9313 1.0591 -0.8449 3.3494 3.8246 -0.4937 -1.4443 -7.5077 -6.6081 -3.6306 5.5529 -9.1591 12.4463 2.4029 -4.5836 4.9318 -0.0000 -0.0000 0.0000 -85.8394 -6.5670 21.0094 24.4676 -35.6548 -7.9775 -0.0000 0.0000 -4.7219 20.0529 -3.2087 -1.1705 -7.1250 0.0000 -0.0000 -4.9926 26.5579 2.2416 -0.0000 -0.0000 0.0000 86.9045 -1.9016 20.4796 -15.8086 25.2605 -3.5639 0.0000 -0.0000 -10.2761 -15.3371 -23.0608 6.1319 7.1250 -0.0000 -0.0000 14.2742 -53.2325 -2.9378
11.0290 17.3545 13.8843 -5.7962 -89.0008 11.6749 0.0000 0.0000 0.0000 -21.8496 7.5369 5.2325 0.7921 5.6813 15.8624 1.3023 -11.4255 -20.7449 0.2026 2.8985 7.9963 0.0000 0.0000 0.0000 16.3790 12.7033 -37.1319 -1.5626 -7.8885 22.3759 0.0031 -9.0150 -12.7904 -0.0960 -1.9986 5.5017 -4.8986 -0.2113 9.1597 1.0462 -0.7823 3.3889 3.9250 -0.4633 -1.5321 -6.6386 -6.7244 -3.2009 4.8533 -9.2951 11.9812 2.0657 -4.6554 4.6528 0.0000 -0.0000 0.0000 -85.7582 -6.7233 21.7884 24.5196 -35.7089 -8.0078 -0.0000 0.0000 -5.3900 20.8726 -3.6828 -1.4031 -7.1250 0.0000 -0.0000 -4.3579 26.0355 2.0083 0.0000 -0.0000 0.0000 86.9539 -2.1845 20.1938 -15.9907 25.5081 -3.6420 0.0000 -0.0000 -10.3707 -15.9691 -23.0651 6.3968 7.1250 -0.0000 -0.0000 13.6491 -53.3512 -2.8452
10.9345 17.3417 13.8715 -8.3242 -88.8763 14.3366 0.0000 0.0000 0.0000 -21.6613 7.5441 5.5777 0.7677 5.5948 15.6132 1.2605 -11.8480 -20.5075 0.2886 3.4551 9.5484 0.0000 0.0000 0.0000 16.6416 12.6882 -37.1978 -1.5403 -7.8347 22.2131 0.0757 -9.5094 -12.1481 -0.0287 -1.0933 3.0055 -4.8903 -0.1551 9.2674 0.9990 -0.7146 3.4088 3.8658 -0.4289 -1.5786 -6.2062 -6.8761 -2.6266 4.6496 -9.5007 11.3053 1.9559 -4.7561 4.3321 0.0000 -0.0000 0.0000 -85.5287 -7.0590 22.5779 24.4071 -35.5918 -7.9423 -0.0000 0.0000 -5.9085 21.3681 -4.0647 -1.5886 -7.1250 0.0000 -0.0000 -3.9764 25.6142 1.8708 0.0000 -0.0000 0.0000 87.2131 -2.2766 19.5575 -15.9868 25.5028 -3.6403 0.0000 -0.0000 -10.1038 -16.0089 -22.7949 6.3430 7.1250 -0.0000 -0.0000 13.4888 -53.0910 -2.7242
10.8345 17.3324 13.8595 -2.9341 -88.6444 9.0043 0.0000 0.0000 0.0000 -21.5748 7.5668 5.9950 0.7459 5.5169 15.3889 1.2334 -12.1309 -20.3593 0.2706 3.3459 9.2434 0.0000 0.0000 0.0000 16.8021 12.3233 -37.2652 -1.5380 -7.8290 22.1958 0.1143 -9.4491 -11.2305 -0.0252 -1.0241 2.8152 -5.0746 -0.3182 9.4724 0.9645 -0.9609 3.4555 3.9624 -0.5537 -1.6144 -6.1177 -6.9406 -2.3955 4.5403 -9.5722 10.9385 1.9199 -4.7951 4.1766 0.0000 0.0000 0.0000 -85.3694 -7.3303 22.6500 24.3334 -35.5148 -7.8994 -0.0000 0.0000 -6.1820 21.2813 -4.0452 -1.5739 -7.1250 0.0000 -0.0000 -4.0422 25.6377 1.8997 0.0000 0.0000 0.0000 87.1197 -2.3373 20.1966 -16.0062 25.5291 -3.6486 0.0000 -0.0000 -10.4049 -16.0880 -22.8516 6.3906 7.1250 -0.0000 -0.0000 13.4355 -53.1614 -2.7365
10.7269 17.3255 13.8429 -8.0844 -88.2499 14.2137 0.0000 0.0000 0.0000 -21.0965 7.6810 6.3651 0.7273 5.4491 15.1940 1.2015 -12.2169 -20.1391 0.1748 2.6931 7.4254 0.0000 0.0000 0.0000 17.0591 12.2272 -37.1793 -1.5500 -7.8580 22.2836 0.1403 -9.4385 -10.6055 -0.0586 -1.5620 4.2966 -5.0365 -0.6894 9.5924 1.1595 -1.4550 3.6254 4.1954 -0.8126 -1.4469 -7.4830 -6.6488 -3.1066 5.1695 -9.1419 11.5096 2.3141 -4.5964 4.5377 0.0000 0.0000 0.0000 -85.5479 -7.5755 22.1166 24.4624 -35.6494 -7.9744 -0.0000 0.0000 -6.2550 21.2042 -3.8200 -1.4806 -7.1250 0.0000 -0.0000 -4.1042 25.8806 1.9057 0.0000 0.0000 0.0000 86.5841 -2.2372 21.3960 -16.1731 25.7548 -3.7209 0.0000 -0.0000 -10.7277 -16.3083 -23.4682 6.6459 7.1250 -0.0000 -0.0000 13.4943 -53.8122 -2.9653
10.6250 17.3197 13.8228 -11.2590 -87.8514 17.5809 0.0000 0.0000 0.0000 -20.6057 7.8498 6.6205 0.6908 5.3132 14.8042 1.1072 -12.6350 -19.5193 0.1949 2.8430 7.8419 0.0000 0.0000 0.0000 17.3574 12.1112 -37.3462 -1.5915 -7.9575 22.5851 0.1872 -9.6182 -9.7408 -0.0650 -1.6446 4.5246 -5.1392 -1.0098 9.6461 1.4720 -1.8901 3.8178 4.6218 -1.0476 -1.2129 -7.5720 -6.7231 -3.7706 4.9492 -9.1567 11.5892 2.2346 -4.6035 4.6689 -0.0000 -0.0000 0.0000 -85.8762 -8.0171 21.6282 24.5378 -35.7278 -8.0184 -0.0000 0.0000 -6.3385 21.0241 -3.8164 -1.4654 -7.1250 0.0000 -0.0000 -4.2405 25.8891 1.9685 -0.0000 -0.0000 0.0000 86.0038 -2.0962 21.8736 -16.5619 26.2766 -3.8914 0.0000 -0.0000 -10.4374 -16.4033 -24.3858 6.9299 7.1250 -0.0000 -0.0000 13.8330 -54.7367 -3.3565
10.5261 17.3208 13.8223 -17.8431 -88.1368 24.6060 0.0000 0.0000 0.0000 -20.5775 7.7307 6.8524 0.6434 5.1315 14.2841 1.0753 -12.3524 -19.2100 0.2606 3.2840 9.0704 0.0000 0.0000 0.0000 17.6973 12.2291 -37.8411 -1.6522 -8.1006 23.0200 0.1933 -9.1902 -8.6022 -0.0710 -1.7194 4.7308 -5.0544 -0.9580 9.5066 1.5606 -1.8054 3.8455 4.6532 -1.0092 -1.1172 -7.2656 -6.6584 -3.7993 4.6724 -9.0376 11.2759 2.1142 -4.5431 4.5434 -0.0000 0.0000 0.0000 -85.8983 -8.4631 21.5392 24.4245 -35.6100 -7.9524 -0.0000 0.0000 -6.2024 20.6000 -3.9351 -1.4776 -7.1250 0.0000 -0.0000 -4.5588 25.7738 2.1294 -0.0000 0.0000 0.0000 85.2422 -1.4235 23.4718 -15.8324 25.2928 -3.5740 0.0000 -0.0000 -12.2206 -17.0557 -23.8060 7.0593 7.1250 -0.0000 -0.0000 12.8987 -54.2875 -2.9817
